# xmcd
#
# Track frame offsets:
#	150
#	16875
#	31600
#	44947
#	59477
#	76735
#	89925
#	108447
#	123225
#	136227
#
# Disc length: 2025 seconds
#
# Revision: 0
# Processed by: cddbd v1.5.1PL0 Copyright (c) Steve Scherf et al.
# Submitted via: dBpowerAMP V4.0
#
DISCID=8207e70a
DTITLE=Horsens Hardy - Sik' Et Liv
DYEAR=1900
DGENRE=
TTITLE0=Lys I Lanternen
TTITLE1=Livets Skyggeside
TTITLE2=Hun Er Sku' Dejlig Min Kvinde
TTITLE3=Dækket Til To
TTITLE4=Søndag Morgen
TTITLE5=Spillemanden Og Englen
TTITLE6=Mig Og Anne Sofie
TTITLE7=Kærlighed Uden Ord
TTITLE8=Kommer Du Hjem Til Lukketid ?
TTITLE9=Når Sommeren Rinder
EXTD=
EXTT0=
EXTT1=
EXTT2=
EXTT3=
EXTT4=
EXTT5=
EXTT6=
EXTT7=
EXTT8=
EXTT9=
PLAYORDER=
